<?xml version="1.0" standalone="no"?><!DOCTYPE svg PUBLIC "-//W3C//DTD SVG 1.1//EN" "http://www.w3.org/Graphics/SVG/1.1/DTD/svg11.dtd"><svg t="1508900602229" class="icon" style="" viewBox="0 0 1024 1024" version="1.1" xmlns="http://www.w3.org/2000/svg" p-id="946" xmlns:xlink="http://www.w3.org/1999/xlink" width="32" height="32"><defs><style type="text/css"></style></defs><path d="M512.017908 191.817724c-176.846754 0-320.182276 143.355989-320.182276 320.200696 0 176.807868 143.335523 320.162834 320.182276 320.162834 176.806845 0 320.144414-143.354965 320.144414-320.162834C832.162322 335.173712 688.825776 191.817724 512.017908 191.817724zM512.017908 797.919938c-154.518213 0-287.538809-128.314411-285.919938-285.901519 1.656733-162.707732 131.401726-285.939381 285.919938-285.939381 154.48035 0 285.882076 124.662231 285.882076 285.939381C797.901007 669.606551 666.498258 797.919938 512.017908 797.919938z" p-id="947" fill="#cdcdcd"></path><path d="M687.865915 434.299337c-5.723352-8.104585-11.069103-14.063297-16.077164-17.923208-4.988618-3.839445-10.090822-7.275707-15.32401-10.089799-5.252631-2.907213-10.881838-6.02318-16.906042-9.441023-6.043646-3.378957-12.932544-8.66945-20.727067-15.878642-9.188266-7.869225-16.226566-15.70161-21.234627-23.457248-5.101181-7.755638-9.281387-14.665001-12.651135-20.744463-3.312442-6.062066-6.776334-10.872628-10.221806-14.402011-3.482311-3.577478-8.226359-5.214768-14.156418-4.950755-7.115048 0.121773-12.989849 2.569522-17.657148 7.256264-4.76349 4.734838-7.455809 11.116175-8.265244 19.146059-3.614317 34.857902-6.860245 66.544579-9.705036 95.381347l-0.309038-0.277316-12.764722 133.095297c-4.047176-2.051729-10.391674-4.507664-19.014052-7.321756-8.659217-2.843768-18.599613-4.556783-29.837562-5.262864-11.257391-0.668219-23.136953 0.518816-35.561937 3.501754-12.443403 2.965541-24.396643 9.195429-35.767622 18.73162-11.42726 9.497305-17.808598 20.256346-19.088754 32.323173-1.318018 12.040221 1.167592 23.474644 7.455809 34.30941 6.287193 10.824533 15.775288 20.218484 28.4254 28.16241 12.688997 7.944949 27.315112 12.32163 43.938722 13.111622 16.322757 0.715291 30.214139-0.903579 41.641399-4.987594 11.446703-4.075829 20.763906-9.375531 28.069289-15.94618 7.284917-6.578836 12.518105-13.808494 15.717983-21.723767 3.219321-7.934716 4.989641-15.276938 5.347798-21.932522l5.647627-57.46376 9.940396-98.108458c0.396019-3.963265 0.808412-8.104585 1.186012-11.935843l5.590322-56.94699c0.414439-4.433986 2.408863-7.323802 5.947456-8.66945 3.539616-1.345648 8.058536 1.205455 13.630439 7.662517 5.817496 7.238868 13.214976 15.192004 22.119787 23.757077 8.924253 8.574283 19.558451 14.712073 31.927153 18.420535 11.879562 3.397377 20.36891 7.972579 25.621541 13.647835 5.270027 5.684466 8.019651 14.034645 8.396227 24.953322 0.206708 6.739495 0.920976 11.43647 2.202155 14.071484 1.280156 2.635013 2.918469 4.197602 4.838192 4.668323 1.957585 0.470721 4.481058-1.176802 7.738241-4.941546 3.180436-3.774977 5.740748-8.744151 7.624654-14.965853 1.919722-6.259564 2.521426-13.337773 1.919722-21.206998C696.84645 450.009134 693.589266 442.129676 687.865915 434.299337z" p-id="948" fill="#cdcdcd"></path></svg>